<svg width="18" height="14" viewBox="0 0 18 14" fill="none" xmlns="http://www.w3.org/2000/svg">
<path fill-rule="evenodd" clip-rule="evenodd" d="M16.2386 1.28677C15.5106 0.600925 15.3718 0.496465 15.0769 0.412574C14.6359 0.287067 14.3298 0.30871 13.9557 0.491933C13.8701 0.533848 12.0859 2.20796 9.99072 4.2122L6.18129 7.85621L4.91978 6.65826C4.16275 5.93932 3.54633 5.40444 3.37828 5.32061C3.00073 5.13231 2.3962 5.12653 2.04054 5.30784C1.65092 5.50657 0.176431 6.9751 0.0771273 7.26338C-0.0435174 7.61349 -0.0207451 8.07241 0.132254 8.37506C0.223469 8.55554 1.03731 9.37399 2.80087 11.059C5.22441 13.3744 5.35339 13.4874 5.67619 13.578C6.09661 13.6961 6.19654 13.6962 6.61795 13.5788C6.94648 13.4874 7.09767 13.349 12.0128 8.64498C15.656 5.15807 17.1067 3.73194 17.2025 3.54311C17.379 3.19526 17.3767 2.68185 17.197 2.32625C17.1162 2.16628 16.7463 1.76507 16.2386 1.28677Z" fill="#FA2724"/>
</svg>
